<svg xmlns="http://www.w3.org/2000/svg" viewBox="0 0 209.05 107.5"><defs><style>.a{fill:#f08d00;}</style></defs><title>Bahnhof logo - Brandlogos.net</title><path class="a" d="M471.59,458.25h10l-7.3,2.06a21.06,21.06,0,0,0-2.65-2.06" transform="translate(-407.47 -458.25)"/><polygon points="117.45 87.66 157.18 81 133.8 87.66 117.45 87.66"/><path d="M481.3,537.11l80.41-10.18-73.77,17.36-9.07,1.62h-6.19c5.21-3.1,6.76-6,8.63-8.8" transform="translate(-407.47 -458.25)"/><path class="a" d="M485.5,524.08l8.28-2.34,89.6-11.33-73.8,17.38-26.08,4.65a32.79,32.79,0,0,0,2-8.36" transform="translate(-407.47 -458.25)"/><path d="M476.4,462.6l15.39-4.35,41.3.1-24.63,5.7L480.63,469a28.44,28.44,0,0,0-4.23-6.39" transform="translate(-407.47 -458.25)"/><path class="a" d="M482.21,473l67.92-8.6-66.79,15.73a25.48,25.48,0,0,0-1.13-7.13" transform="translate(-407.47 -458.25)"/><path d="M482.94,485.83l29.15-8.26,89.6-11.33-73.8,17.38L480.83,492a19.8,19.8,0,0,0,2.11-6.17" transform="translate(-407.47 -458.25)"/><path class="a" d="M476,500.16l18.66-5.26,89.63-11.33-73.77,17.36L481.71,506a21.58,21.58,0,0,0-5.75-5.88" transform="translate(-407.47 -458.25)"/><path d="M484.79,513l47.42-6-46.63,11a26.75,26.75,0,0,0-.79-5" transform="translate(-407.47 -458.25)"/><path d="M407.52,545.91V458.25h44.59q13.9,0,20.26,7a23,23,0,0,1,6.37,15.93,20.11,20.11,0,0,1-3.69,11.8,18.89,18.89,0,0,1-11,7.28q17,4.13,17,20.48a27.7,27.7,0,0,1-6,17.5q-6,7.71-25.71,7.69H407.52Zm24.8-54.25h12.59c3.15,0,5.38-.76,6.69-2.34a7.62,7.62,0,0,0,1.94-5q0-7.19-9.1-7.18H432.33Zm0,34.69h13.2c3.27,0,5.68-.81,7.2-2.41a7.69,7.69,0,0,0,2.29-5.46,8.25,8.25,0,0,0-2.24-5.58c-1.5-1.7-4.2-2.53-8.19-2.53H432.3v16" transform="translate(-407.47 -458.25)"/><polygon class="a" points="139.8 0 157.08 0 152.61 1.3 108.11 7.57 139.8 0"/><polygon class="a" points="128.69 50.59 168.32 43.93 135.67 53.25 91.2 59.51 128.69 50.59"/><polygon points="128.47 40.09 168.12 33.46 135.47 42.77 90.98 49.04 128.47 40.09"/><polygon class="a" points="158.8 20.28 198.43 13.62 165.78 22.94 121.31 29.23 158.8 20.28"/><polygon class="a" points="160.82 5.01 190.74 0 194.74 0 167.82 7.69 123.36 13.96 160.82 5.01"/><polygon points="148.55 62.24 188.2 55.61 155.56 64.92 111.06 71.19 148.55 62.24"/><polygon class="a" points="128.07 78.64 167.73 72 135.08 81.32 90.61 87.59 128.07 78.64"/><path d="M419.3,565.43H407.48V550h11a16.83,16.83,0,0,1,5.33.61,3.57,3.57,0,0,1,2.61,3.61q0,2.18-3.17,3.47c2.16.74,3.24,1.84,3.24,3.37a3.57,3.57,0,0,1-2.09,3.49,11.87,11.87,0,0,1-5.14.84m-.71-12.64H412v3.56h6.59c2,0,3-.59,3-1.77s-1-1.79-3-1.79M412,559.09v3.64h6.66c2,0,3-.61,3-1.79s-1-1.84-3-1.84H412" transform="translate(-407.47 -458.25)"/><path d="M433,565.43h-4.79L437.29,550h4.79l9.22,15.39h-5l-2-3.69h-9.37Zm3.34-6.39h6.44l-3.27-5.9-3.17,5.9" transform="translate(-407.47 -458.25)"/><polygon points="47.37 107.18 47.37 91.79 51.89 91.79 51.89 98.01 60.2 98.01 60.2 91.79 64.7 91.79 64.7 107.18 60.2 107.18 60.2 100.74 51.89 100.74 51.89 107.18 47.37 107.18"/><polygon points="73.89 107.18 69.25 107.18 69.25 91.79 75.03 91.79 83.8 102.88 83.61 91.79 88.15 91.79 88.15 107.18 82.97 107.18 73.7 95.55 73.89 107.18"/><polygon points="92.97 107.18 92.97 91.79 97.49 91.79 97.49 98.01 105.8 98.01 105.8 91.79 110.3 91.79 110.3 107.18 105.8 107.18 105.8 100.74 97.49 100.74 97.49 107.18 92.97 107.18"/><path d="M531.67,549.72c3.32,0,5.85.52,7.57,1.55,2.19,1.3,3.27,3.44,3.27,6.47,0,5.36-3.61,8-10.79,8-3.69,0-6.42-.66-8.16-2a7.2,7.2,0,0,1-2.63-6.07q0-8,10.74-8m-5.8,8c0,3.61,1.94,5.43,5.85,5.43s5.85-1.79,5.85-5.36-1.94-5.38-5.85-5.38a6.14,6.14,0,0,0-4.42,1.43,5.1,5.1,0,0,0-1.43,3.88" transform="translate(-407.47 -458.25)"/><path d="M551.38,565.43h-4.6v-7.06a10,10,0,0,1,1.25-5.53,5.65,5.65,0,0,1,3.59-2.31,25.76,25.76,0,0,1,5.8-.47h6.88v2.68H557a7.9,7.9,0,0,0-4,.79,3.53,3.53,0,0,0-1.55,2.95h12.93v2.63H551.41l0,6.32" transform="translate(-407.47 -458.25)"/><polygon class="a" points="169.4 37.46 209.05 30.83 176.4 40.14 131.91 46.41 169.4 37.46"/></svg>