<?xml version="1.0" encoding="UTF-8" standalone="no"?><svg xmlns="http://www.w3.org/2000/svg" width="40" height="40" viewBox="0 0 40 40" fill="none">
    <path fill-rule="evenodd" clip-rule="evenodd" d="M34.8755 5.1245C31.264 1.43903 25.6318 0.038111 20 0C14.368 0.038111 8.73616 1.43918 5.1248 5.1245C1.43888 8.73646 0.038111 14.3682 0 20.0002C0.0384123 25.6321 1.43933 31.2641 5.1248 34.8754C8.73586 38.5611 14.368 39.962 20 40.0002C25.632 39.9619 31.2637 38.5611 34.8755 34.8754C38.561 31.2638 39.9619 25.632 40 20C39.9619 14.3679 38.561 8.73586 34.8755 5.1245Z" fill="#F71414"/>
    <g filter="url(#filter0_d)">
        <path fill-rule="evenodd" clip-rule="evenodd" d="M22.0661 22.7214C21.6108 23.1822 20.901 23.3574 20.191 23.3624C19.8714 23.3601 19.5531 23.3209 19.2568 23.2392V18.4839C19.5531 18.4022 19.8714 18.363 20.191 18.3609C20.901 18.3657 21.6108 18.5408 22.0661 19.0016C22.5306 19.4531 22.7073 20.1574 22.7121 20.8615C22.7073 21.5658 22.5308 22.27 22.0661 22.7214ZM25.8942 15.8147C24.659 14.5642 22.7325 14.0891 20.8062 14.076C20.2851 14.0796 19.7643 14.1179 19.2568 14.1954V10.5883H14.7059V27.6471H20.8062C22.7325 27.634 24.6589 27.1588 25.8942 25.9084C27.1549 24.6831 27.6341 22.7724 27.6471 20.8615C27.6341 18.9507 27.1549 17.0398 25.8942 15.8147Z" fill="white"/>
    </g>
    <defs>
        <filter id="filter0_d" x="13.7059" y="10.0883" width="14.9412" height="19.0588" filterUnits="userSpaceOnUse" color-interpolation-filters="sRGB">
        <feFlood flood-opacity="0" result="BackgroundImageFix"/>
        <feColorMatrix in="SourceAlpha" type="matrix" values="0 0 0 0 0 0 0 0 0 0 0 0 0 0 0 0 0 0 127 0"/>
        <feOffset dy="0.5"/>
        <feGaussianBlur stdDeviation="0.5"/>
        <feColorMatrix type="matrix" values="0 0 0 0 0 0 0 0 0 0 0 0 0 0 0 0 0 0 0.25 0"/>
        <feBlend mode="normal" in2="BackgroundImageFix" result="effect1_dropShadow"/>
        <feBlend mode="normal" in="SourceGraphic" in2="effect1_dropShadow" result="shape"/>
        </filter>
    </defs>
</svg>