<svg xmlns="http://www.w3.org/2000/svg" viewBox="0 0 1291.67 407.89"><path d="M386.9 114.97c0 .6-.75 1.06-1.21.75-4.08-2.26-11.63-4.38-18.57-4.38-19.48 0-34.42 11.47-34.42 28.38 0 18.57 14.95 28.84 32.76 28.84 8.61 0 16.31-2.57 20.23-5.28.6-.45 1.36 0 1.36.75v1.66c0 .91.75 1.66 1.66 1.66h20.23c.91 0 1.66-.75 1.66-1.66v-55.41c0-21.74-13.74-34.88-38.2-34.88-11.17 0-22.34 1.51-28.84 5.13-.6.3-.91.91-.91 1.51v19.02c0 .6.75 1.06 1.21.75 12.23-6.79 42.88-9.66 42.88 9.66l.16 3.5zm-15.71 35.48c-7.7 0-15.7-3.17-15.7-10.87 0-7.55 8-10.87 15.7-10.87 7.1 0 15.7 3.02 15.7 10.87.01 7.85-8.6 10.87-15.7 10.87zm-40.16-72.02c0-.75-.45-1.36-1.21-1.66-1.81-.6-4.83-1.06-8.15-1.06-7.7 0-14.34 3.32-18.42 8.45-.45.6-1.51.3-1.51-.45v-4.83c0-.91-.75-1.66-1.66-1.66h-21.29c-.91 0-1.66.75-1.66 1.66v86.78c0 .91.75 1.66 1.66 1.66h21.29c.91 0 1.66-.75 1.66-1.66V113.6c0-9.06 8.3-14.8 16.91-14.8 3.77 0 7.4.75 10.57 2.11.91.45 1.81-.3 1.81-1.21V78.43zm-93.45 36.54c0 .6-.75 1.06-1.21.75-4.08-2.26-11.63-4.38-18.57-4.38-19.48 0-34.42 11.47-34.42 28.38 0 18.57 14.95 28.84 32.76 28.84 8.61 0 16.31-2.57 20.23-5.28.6-.45 1.36 0 1.36.75v1.66c0 .91.75 1.66 1.66 1.66h20.23c.91 0 1.66-.75 1.66-1.66v-55.41c0-21.74-13.74-34.88-38.2-34.88-11.17 0-22.34 1.51-28.84 5.13-.6.3-.91.91-.91 1.51v19.02c0 .6.75 1.06 1.21.75 12.23-6.79 42.88-9.66 42.88 9.66l.16 3.5zm-15.7 35.48c-7.7 0-15.7-3.17-15.7-10.87 0-7.55 8-10.87 15.7-10.87 7.1 0 15.7 3.02 15.7 10.87s-8.61 10.87-15.7 10.87zM167.37 37.67l-21.89 6.34c-.75.15-1.21.91-1.21 1.66v108.4c0 7.1 5.74 12.83 12.83 12.83h15.1c.91 0 1.66-.75 1.66-1.66v-5.13c0-.6-.3-1.21-.91-1.66-.91-.75-2.57-2.26-3.17-4.53-.91-3.32-1.06-8-1.06-8V39.02c.16-.9-.59-1.51-1.35-1.35zm776.33 169.2l-21.79 6.31c-.75.15-1.2.9-1.2 1.65v107.9c0 7.06 5.71 12.77 12.77 12.77h15.03c.9 0 1.65-.75 1.65-1.65v-5.11c0-.6-.3-1.2-.9-1.65-.9-.75-2.55-2.25-3.16-4.51-.9-3.31-1.05-7.96-1.05-7.96v-106.4c.16-.9-.59-1.5-1.35-1.35zM67.12 44.46H45.83c-.91 0-1.66.75-1.66 1.66v119.12c0 .91.75 1.66 1.66 1.66h21.29c.91 0 1.66-.75 1.66-1.66V112.7c0-.45.6-.6.75-.3l36.54 53.9c.3.45.91.75 1.36.75h27.93c.75 0 1.06-.75.75-1.36l-43.94-61.9c-.3-.45-.3-1.06 0-1.51l42.12-56.47c.45-.6 0-1.36-.75-1.36h-27.18c-.6 0-1.06.3-1.36.75L69.69 95.79c-.3.3-.75.15-.75-.3V46.12c-.16-.91-.91-1.66-1.82-1.66zM509.97 209.8c12.78 0 23.02 3.26 30.9 8.75.78.54 1.22 1.45 1.22 2.39v21.54c0 1.12-1.29 1.73-2.17 1.03-8.78-6.98-17.99-10.23-28.74-10.23-22.08 0-36.54 15.86-36.54 40.15 0 24.09 14.45 39.95 36.54 39.95 10.75 0 19.97-3.08 28.75-10.04.88-.7 2.17-.09 2.17 1.04v21.54c0 .98-.5 1.89-1.31 2.45-7.87 5.46-18.08 8.69-30.82 8.69-35.74 0-61.23-25.5-61.23-63.64 0-38.13 25.49-63.62 61.23-63.62zm84.67 127.28c-26.1 0-43.97-19.27-43.97-46.78 0-27.7 17.87-46.98 43.97-46.98s43.97 19.27 43.97 46.98c-.01 27.51-17.88 46.78-43.97 46.78zm0-72.68c-12.45 0-19.27 10.84-19.27 25.9 0 14.86 6.83 25.7 19.27 25.7s19.27-10.84 19.27-25.7c0-15.06-6.83-25.9-19.27-25.9zm56.38-19.02h22.07c.77 0 1.4.62 1.4 1.4v4.67c0 .76.9 1.14 1.45.61 5.02-4.89 13.16-8.69 22.61-8.69 20.25 0 31.68 13.23 31.68 33.08v57.72c0 .77-.62 1.4-1.4 1.4h-22.07c-.77 0-1.4-.62-1.4-1.4v-52.51c0-9.42-4.81-15.84-14.64-15.84-7.55 0-14.12 4.53-16.19 12.23-.04.13-.05.27-.05.41v55.71c0 .77-.62 1.4-1.4 1.4h-22.07c-.77 0-1.4-.62-1.4-1.4v-87.41c.01-.75.64-1.38 1.41-1.38zm419.05 0h22.07c.77 0 1.4.62 1.4 1.4v4.67c0 .76.9 1.14 1.45.61 5.02-4.89 13.16-8.69 22.61-8.69 20.25 0 31.68 13.23 31.68 33.08v57.72c0 .77-.62 1.4-1.4 1.4h-22.07c-.77 0-1.4-.62-1.4-1.4v-52.51c0-9.42-4.81-15.84-14.64-15.84-7.55 0-14.12 4.53-16.19 12.23-.04.13-.05.27-.05.41v55.71c0 .77-.62 1.4-1.4 1.4h-22.07c-.77 0-1.4-.62-1.4-1.4v-87.41c.01-.75.64-1.38 1.41-1.38zm-167.64 88.2h-22.07c-.77 0-1.4-.62-1.4-1.4v-4.67c0-.76-.9-1.14-1.45-.61-5.02 4.89-13.16 8.69-22.61 8.69-20.25 0-31.68-13.23-31.68-33.08v-57.72c0-.77.62-1.4 1.4-1.4h22.07c.77 0 1.4.62 1.4 1.4v52.51c0 9.42 4.81 15.84 14.64 15.84 7.55 0 14.12-4.53 16.19-12.23.04-.13.05-.27.05-.41v-55.71c0-.77.62-1.4 1.4-1.4h22.07c.77 0 1.4.62 1.4 1.4v87.41c-.02.75-.64 1.38-1.41 1.38zm136.44-99.87c-8.08 0-14.96-5.86-14.96-14.35 0-8.29 6.87-14.35 14.96-14.35 7.88 0 14.75 6.06 14.75 14.35 0 8.48-6.87 14.35-14.75 14.35zm11.11 101.77h-22.23c-.78 0-1.42-.63-1.42-1.42v-87.22c0-.78.63-1.42 1.42-1.42h22.23c.78 0 1.42.63 1.42 1.42v87.22c0 .79-.63 1.42-1.42 1.42zm-37.05-90.13h-14.91c-.19 0-.34-.15-.34-.34v-21.38c0-.11-.02-.22-.03-.32v-1.57c.15-.92-.62-1.54-1.39-1.39l-22.33 6.47c-.77.15-1.23.92-1.23 1.69v16.5c0 .19-.15.34-.34.34h-14.23c-.88 0-1.6.71-1.6 1.6v16.94c0 .86.7 1.56 1.56 1.56h14.27c.19 0 .34.15.34.34v56.27c0 7.42 6.01 13.43 13.43 13.43h14.72c1.12 0 2.03-.92 2.03-2.03v-4.89c0-.62-.31-1.23-.92-1.69-.92-.77-2.62-2.31-3.23-4.62-.71-2.62-.97-5.74-1.04-7.03v-49.42c0-.19.15-.34.34-.34h14.62c.88 0 1.59-.71 1.59-1.59v-17.21c-.01-.74-.59-1.32-1.31-1.32zm-269.01 63.17c0-.78.89-1.19 1.5-.7 8.46 6.88 19.97 9.63 29.17 9.63 7.37 0 13.14-2.21 13.14-7.63 0-5.02-3.98-6.83-10.16-8.84l-8.56-2.41c-15.53-4.22-25.29-11.65-25.29-27.11 0-17.47 14.93-28.12 34.85-28.12 9.42 0 19.89 1.2 27.78 6.06.44.27.7.76.7 1.28v20.01c0 .76-.85 1.18-1.46.72-7.62-5.66-16.28-8.38-25.82-8.38-6.77 0-11.95 2.61-11.95 7.63 0 4.82 3.38 6.43 9.56 8.44l9.96 3.01c16.93 4.82 24.69 12.85 24.69 27.32 0 18.08-15.73 27.72-36.64 27.72-11.36 0-23.1-2.05-30.7-7.45-.49-.35-.76-.92-.76-1.52v-19.66zm479 15.55c-3.97 4.56-11.71 8.93-21.63 8.93-25.6 0-40.09-20.64-40.09-44.65 0-24.21 14.49-44.85 40.09-44.85 8.83 0 15.93 3.46 20.18 7.43.56.52 1.45.13 1.45-.63v-3.77c0-.58.47-1.05 1.05-1.05h22.51c.58 0 1.05.47 1.05 1.05v77.94c0 32.55-24.01 44.96-48.23 44.96-11.43 0-22.15-3.16-29.33-7.3-.78-.45-1.23-1.29-1.23-2.19v-20.03c0-.89 1.02-1.36 1.72-.8 8.61 6.86 17.66 8.98 28.45 8.98 13.3 0 24.01-6.75 24.01-21.23v-2.79zm0-50.51c0-.19-.05-.39-.15-.55-2.85-4.85-9.11-8.87-16.33-8.87-13.1 0-20.64 10.12-20.64 24.21 0 13.89 7.54 24.01 20.64 24.01 7.22 0 13.49-3.84 16.33-8.88.09-.17.14-.35.14-.54l.01-29.38zM66.82 253.27v6.09H50.99v7.29h14.36v5.93H50.99v7.94h15.83v6.14H44.14v-33.39h22.68zm14.53 14.36l12.18-14.36h8.38l-13.87 15.99 14.36 17.4h-8.54l-12.51-15.12v15.12h-6.96v-33.39h6.96v14.36zm39.21 19.58c-9.3 0-15.77-7.29-15.77-17.24 0-10.01 6.47-17.24 15.77-17.24s15.83 7.23 15.83 17.24c0 9.95-6.53 17.24-15.83 17.24zm0-28.28c-5.28 0-8.7 4.51-8.7 11.04s3.43 11.04 8.7 11.04c5.33 0 8.81-4.51 8.81-11.04s-3.48-11.04-8.81-11.04zm50.81 27.73h-5.49l-15.77-22.24v22.24h-6.69v-33.39h6.53l14.74 21.1v-21.1h6.69v33.39zm22.74.55c-9.3 0-15.77-7.29-15.77-17.24 0-10.01 6.47-17.24 15.77-17.24s15.83 7.23 15.83 17.24c0 9.95-6.53 17.24-15.83 17.24zm0-28.28c-5.28 0-8.7 4.51-8.7 11.04s3.43 11.04 8.7 11.04c5.33 0 8.81-4.51 8.81-11.04s-3.48-11.04-8.81-11.04zm39.28 20.55l-9.63-14.36v21.54h-6.8v-33.39h6.47l10.12 15.77 10.06-15.77h6.36v33.39h-6.85v-21.54l-9.52 14.36h-.21zm32.1 7.18h-6.96v-33.39h6.96v33.39zm7.4-9.13c2.99 2.23 6.8 3.7 10.66 3.7 3.37 0 5.93-1.04 5.93-3.64 0-2.18-1.41-2.99-3.91-3.91l-4.89-1.63c-4.95-1.63-8.21-4.19-8.21-9.73 0-6.2 5.33-9.57 11.86-9.57 4.08 0 7.4.98 10.12 2.61v6.8c-2.88-2.12-6.04-3.48-9.9-3.48-2.99 0-5.28 1.04-5.28 3.32 0 2.07 1.36 2.88 3.7 3.64l5.22 1.8c5.6 1.9 8.16 4.95 8.16 9.89 0 6.58-5.6 9.9-12.67 9.9-4.46 0-8.38-1.3-10.77-2.83v-6.87zm37.42-9.9l12.18-14.36h8.38L317 269.26l14.36 17.4h-8.54l-12.51-15.12v15.12h-6.96v-33.39h6.96v14.36zM51.1 315.68l12.18-14.36h8.38l-13.87 15.99 14.36 17.4h-8.54L51.1 319.6v15.12h-6.96v-33.39h6.96v14.35zm27.04-14.36h6.96v27.25h15.55v6.14H78.14v-33.39zm47.1 0l12.78 33.39h-7.07l-2.99-8.05h-12.51l-2.94 8.05h-6.96l12.78-33.39h6.91zm-7.61 19.47h8.16l-4.08-11.09-4.08 11.09zm33.51 1.47v12.45h-6.91v-33.39h13.76c7.02 0 11.69 3.75 11.69 10.61 0 5.33-2.94 8.7-7.61 9.84l8.81 12.94h-7.83l-8.27-12.45h-3.64zm0-5.71h6.42c3.48 0 5.27-1.85 5.27-4.62 0-2.83-1.79-4.68-5.27-4.68h-6.42v9.3zm54.93-15.23v33.39h-6.96v-14.03H184v14.03h-6.96v-33.39H184v13.27h15.12v-13.27h6.95zm31.29 0v6.09h-15.83v7.29h14.36v5.93h-14.36v7.94h15.83v6.14h-22.68v-33.39h22.68zm5.77 0h28.5v6.09h-10.77v27.3h-7.02v-27.3h-10.71v-6.09zm127.38 34h-26.19c-.93 0-1.51-1.01-1.04-1.82L513.79 45.08c.22-.37.61-.6 1.04-.6h26.19c.93 0 1.51 1.01 1.04 1.82L371.55 334.73c-.21.37-.61.59-1.04.59z" fill="#1d1d1b"/></svg>