<svg xmlns="http://www.w3.org/2000/svg" width="100.461" height="25" viewBox="0 0 100.461 25">
                        <path id="symbrio-logo" data-name="Symbrio Logo" d="M82.254,0a1.936,1.936,0,0,0-1.9,1.786,1.816,1.816,0,0,0,1.786,2.009h0A1.915,1.915,0,0,0,83.929,2.9a2.1,2.1,0,0,0,.223-.893A1.779,1.779,0,0,0,83.705.67,1.945,1.945,0,0,0,82.366,0ZM0,16.629v1.563c0,1.451,2.679,2.79,5.58,2.79h0c4.129,0,6.473-1.9,6.473-5.134,0-2.344-1.562-3.795-4.911-4.353-2.567-.335-3.237-.67-3.237-1.562,0-1.228,1.116-1.9,3.237-1.9A6.737,6.737,0,0,1,11.5,9.152V7.813c0-1.451-1.228-2.9-4.688-2.9C3.125,4.911.335,7.143.335,10.268c0,2.344,1.563,3.571,4.8,4.018,2.679.446,3.348.781,3.348,1.9,0,1.228-1,1.9-3.013,1.9C3.571,17.969.893,17.411,0,16.629Zm68.415,4.018H72.1v-9.04c0-3.125,1.451-3.795,2.79-4.018h.558a5.121,5.121,0,0,1,2.79,1.116,3.57,3.57,0,0,0-.893-2.567,4.2,4.2,0,0,0-3.125-1.228c-4.129,0-5.692,3.125-5.692,6.027v9.71Zm11.607.112h3.571V4.911H81.92A2.412,2.412,0,0,0,79.911,7.7ZM15.848,25h0a5.83,5.83,0,0,0,5.469-3.683L27.455,5.246H23.661L19.754,15.625l-.112-.335L16.406,5.357H12.5L13.951,9.71h0s1.116,3.46,2.121,6.138a4.093,4.093,0,0,0,2.567,2.679h.112l-.781,1.563c-.781,1.9-2.121,4.129-3.237,4.8A3.8,3.8,0,0,0,15.848,25ZM43.973,4.911h-.446A5.4,5.4,0,0,0,40.29,6.027a12.572,12.572,0,0,0-3.46,8.259v4.129a2.489,2.489,0,0,0,2.679,2.232h1V11.5c0-2.79,1.563-3.46,2.79-3.46,1.339,0,3.013.67,3.013,3.906v8.705H50V10.379A6.137,6.137,0,0,0,43.973,4.911Zm-9.821,0h0c-4.464,0-6.92,2.455-6.92,7.031v6.473a2.412,2.412,0,0,0,2.679,2.232H30.8V11.5c0-2.232,1-3.46,2.79-3.46a2.931,2.931,0,0,1,3.013,2.679,14.609,14.609,0,0,1,1.674-4.129A6.014,6.014,0,0,0,34.152,4.911ZM55.357.223c-.781.335-3.571,1.674-3.571,4.688v8.482a7.434,7.434,0,0,0,7.143,7.589h0c4.353,0,7.589-3.46,7.589-8.371,0-4.464-2.344-7.478-5.915-7.478a4.121,4.121,0,0,0-3.013,1.228A5.646,5.646,0,0,0,56.25,9.71a3.48,3.48,0,0,1,2.679-1.786c2.679,0,3.906,1.563,3.906,5.246,0,2.567-1.451,4.464-3.46,4.464-1.786,0-4.018-.893-4.018-5.246ZM92.746,8.147h0c2.679,0,4.018,1.786,4.018,5.134v.781a9.651,9.651,0,0,1-3.571,7.031c4.464-.112,7.254-3.348,7.254-8.371a7.349,7.349,0,0,0-5.58-7.589,9.556,9.556,0,0,0-4.018,3.571A3.762,3.762,0,0,1,92.746,8.147Zm.335-3.237c-4.576,0-7.478,3.348-7.478,8.371a7.464,7.464,0,0,0,5.8,7.7,9.156,9.156,0,0,0,3.906-3.795,3.434,3.434,0,0,1-2.121.67c-2.567,0-3.906-1.786-3.906-5.246A9.784,9.784,0,0,1,93.08,4.911Z"></path>
                    </svg>